<?xml version="1.0" encoding="utf-8"?>
<svg version="1.1" xmlns="http://www.w3.org/2000/svg"
	width="402px" height="270px" viewBox="0 0 402 270">

<style type="text/css">
	#Logo .letter,
	.human  { fill:hsl(198,74%,53%); }
	.tool   { fill:hsl(15,67%,55%); }
	.wifi   { stroke:hsl(198,74%,53%); opacity: 0.5; fill:none;
	          stroke-width:4.2; stroke-linecap:round; }
	
	#Logo .hammer { fill:hsl(50,100%,50%); opacity:0.67; }
	#Logo .house  { stroke:hsl(0,0%,50%); fill:none; stroke-width:5.6; }
	.letter       { fill:hsl(0,0%,50%); }
</style>

<g>
	<path class="tool" title="tablet" d="M330.9,137.8l10.9-2.7c1.5-0.4,2.4-1.9,2-3.4l-4.1-16.3c-0.4-1.5-1.9-2.4-3.4-2l-10.9,2.7c-1.5,0.4-2.4,1.9-2,3.4l4.1,16.3C327.9,137.3,329.4,138.2,330.9,137.8z"/>
	
	<g class="human">
		<path d="M350.8,128.6c0,0-4,1.2-6.5,4.4c0,0-2.3-2-5.8-2.7c-3.6-0.8-2.8-6.7,2.6-5.9C346.4,125.1,350.8,128.6,350.8,128.6z"/>
		<path d="M349.4,189.6c0-5.4,0-19.9,0-27c0-9.7-3.4-16.8-3.4-16.8s-3.2,1.1-5,1.1c-5.3,0.1-13.9-4.1-14.8-8.1c-0.8-3.5,1.3-6.1,5.3-4.8c4,1.3,9,7.1,14.4,1c5.6-6.3,18.1-6.5,21.7-1.1c1.7,2.6,4.9,9.3,4.9,20.3c0,7.2-0.7,28.6-0.7,36.4c0,2.3-1.9,4.2-4.2,4.2c-2.3,0-4.2-1.9-4.2-4.2c0-2.7,0-13.8,0-18.9c0-5.4-3.5,0-3.5,1.8c0,3.6,0,11.4,0,16.1c0,2.9-2.4,5.2-5.2,5.2C351.8,194.8,349.4,192.5,349.4,189.6z"/>
		<circle cx="355.8" cy="115.7" r="11.9"/>
	</g>
	
	<g class="wifi">
		<path d="M336.8,97.7c-3.4-1.2-7.1,0.5-8.3,3.9"/>
		<path d="M340.1,88.5c-8.4-3.1-17.8,1.3-20.8,9.7"/>
		<path d="M343.5,79.3c-13.5-4.9-28.4,2-33.3,15.5"/>
	</g>
</g>

<g>
	<g class="tool">
		<path d="M89.3,146.4c0.1,0.8-0.4,1.5-1.1,1.6l-5.5,1c-0.8,0.1-1.5-0.4-1.6-1.1l-2.4-13.8c-0.1-0.8-0.3-2-0.3-2.8l-0.3-5.7c0-0.8,0.6-1.5,1.3-1.6l3.4-0.6c0.8-0.1,1.6,0.4,1.8,1.1l1.7,5.4c0.2,0.7,0.5,2,0.7,2.7L89.3,146.4z"/>
		<path d="M90.7,106.4c-0.1-0.8-0.9-1.3-1.6-1.1l-2.2,0.4c-0.8,0.1-1.6,0.8-1.9,1.5c0,0-0.4,0.9-1.7,1.1c-2.4,0.4-1.9-1.7-4.7-1.2c-12.7,2.2-13.4,9.5-13.4,9.5c-0.1,0.8,0.4,1,1,0.5c0,0,2.5-1.9,6.4-2.6c2.7-0.5,4.4,1.7,4.7,3.4s0.5,2.8,0.5,2.8c0.1,0.8,0.9,1.3,1.6,1.1l2.4-0.4c0.8-0.1,1.3-0.9,1.1-1.6c0,0-0.2-0.8-0.5-2.8c-0.2-1.4-0.2-4.4,1.6-4.7c1.3-0.2,2.3,1.4,2.3,1.4c0.4,0.7,1.4,1.1,2.1,0.9l2.2-0.4c0.8-0.1,1.3-0.9,1.1-1.6L90.7,106.4z"/>
	</g>
	
	<g class="human">
		<path d="M61,189.6c0-5.4,0-19.9,0-27c0-9.7,3.4-16.8,3.4-16.8s3.2,1.1,5,1.1c5.3,0.1,13.9-4.1,14.8-8.1c0.8-3.5-1.3-6.1-5.3-4.8c-4,1.3-9,7.1-14.4,1c-5.6-6.3-18.1-6.5-21.7-1.1c-1.7,2.6-4.9,9.3-4.9,20.3c0,7.2,0.7,28.6,0.7,36.4c0,2.3,1.9,4.2,4.2,4.2c2.3,0,4.2-1.9,4.2-4.2c0-2.7,0-13.8,0-18.9c0-5.4,3.5,0,3.5,1.8c0,3.6,0,11.4,0,16.1c0,2.9,2.4,5.2,5.2,5.2S61,192.5,61,189.6z"/>
		<circle cx="54.6" cy="115.7" r="11.9"/>
	</g>
</g>



<g id="Logo">
	<g class="hammer">
		<path d="M182.7,167.7c-1.5,2.7-5,3.6-7.6,2l-8.5-4.9c-2.7-1.5-3.6-5-2-7.6l15.4-26.7c1.5-2.7,4.3-6.9,6.2-9.3l6-7.9c1.9-2.5,5.6-3.2,8.2-1.7l3.9,2.3c2.7,1.5,3.9,5.1,2.7,8l-3.9,9.2c-1.2,2.8-3.4,7.3-5,10L182.7,167.7z"/>
		<path d="M248.5,95.8c1.2-2,0.5-4.6-1.5-5.7l-3.6-2.1c-2-1.2-5.3-1.2-7.4-0.2c0,0-1.5,0.8-4.3-0.9c-5.2-3-0.9-6.2-7.2-9.8c-27.9-16.1-40.5-3.8-40.5-3.8c-1.7,1.6-1.1,3,1.2,3.1c0,0,7.2,0.3,15.8,5.3c6,3.4,5.7,10.5,3.6,14.2c-2.1,3.7-3.2,5.5-3.2,5.5c-1.2,2-0.5,4.6,1.5,5.7l4.1,2.4c2,1.2,4.5,0.4,5.6-1.6c0,0,0.6-1.1,3.2-5.4c1.8-3,6.6-8.7,10.5-6.4c2.8,1.6,2.3,5.7,2.3,5.7c-0.3,2.3,1.1,5.1,3.1,6.3l3.6,2.1c2,1.2,4.6,0.5,5.7-1.5L248.5,95.8z"/>
	</g>
	<g title="おうちHack" class="letter">
		<path d="M168.4,179.7c0,2.1-1.9,3.2-3.7,3.2c-1.9-0.1-3.7-1-3.7-3.1c0-0.1,0-0.1,0-0.1c0.1-2.9,0.1-5.8,0.1-8.4c0-4.1-0.1-7.4-0.1-9.1c0-1-0.3-1.2-1.2-1.2c-2.3-0.1-6.1-0.1-9.9-0.1c-4.8,0-9.7,0.1-12.2,0.1c-0.5,0-1.2,0.1-1.2,1c-0.1,1.7-0.1,5.1-0.1,9.3c0,2.6,0,5.5,0.1,8.4c0,0.1,0,0.1,0,0.1c0,2.1-1.8,3-3.7,3c-1.9,0-3.7-1-3.7-3.1v-0.1c0.1-6.8,0.2-15.3,0.2-23.4c0-7.2-0.1-14-0.2-18.9c-0.1-2.1,1.4-3.5,3.7-3.5c1.9,0,3.7,1.2,3.7,3.3c0,0.1,0,0.1,0,0.1c-0.1,2.6-0.1,5.2-0.1,7.4c0,3.5,0.1,6.4,0.1,8c0,1,0.5,1.2,1,1.2c1.6,0.1,6.1,0.1,10.7,0.1c4.7,0,9.5,0,11.9-0.1c0.8,0,1-0.5,1-1.2c0.1-1.5,0.1-4.4,0.1-8c0-2.3-0.1-4.9-0.1-7.5c-0.1-2.1,1.7-3.5,3.7-3.5c1.9,0,3.7,1.2,3.7,3.3c0,0.1,0,0.1,0,0.1c-0.1,4.7-0.2,11.6-0.2,18.6C168.2,165,168.3,174.2,168.4,179.7L168.4,179.7z"/>
		<path d="M201.4,181.6c-0.6-0.5-1.2-1.2-1.7-2.1c-0.1-0.1-0.2-0.2-0.3-0.2c-0.1,0-0.3,0.1-0.4,0.2c-2.2,2.5-6.2,3.9-10,3.9c-7.1,0-11.3-5.2-11.3-10.1c0-3.3,1.9-6.6,6.2-8.1c4.4-1.5,10-2.8,11-2.8c0.6-0.1,1.2-0.8,1.2-2.2c0-0.8-0.2-4.1-4.6-4.1c-2.9,0-5.1,1.4-6.3,2.7c-0.7,0.8-1.6,1.2-2.4,1.2c-1.7,0-3.1-1.3-3.1-3c0-3.1,5.7-6.5,12.2-6.5c7.1,0,10.9,3.5,10.9,10.9c0,0.8-0.1,1.6-0.1,2.5c-0.1,1-0.3,3.4-0.3,5.3c0,0.6,0,1.1,0.1,1.5c0.6,5.2,3,5.3,3.5,5.7c0.7,0.5,1,1.4,1,2.3c0,1.8-1.4,3.9-3.3,3.9C203,182.6,202.2,182.2,201.4,181.6z M195.5,167.7c-10.9,1.4-11.5,4.1-11.5,5.6c0,2,1.7,4,5,4c5.2,0,7.5-2.6,7.5-7.2C196.4,169.2,196.3,167.7,195.5,167.7L195.5,167.7z"/>
		<path d="M227.7,183.2c-11.7,0-16.1-9.1-16.1-16c0-8.7,6.2-16.6,16.3-16.6c6.9,0,11.6,4.1,11.6,6.7c0,1.8-1.6,3.3-3.4,3.3c-0.9,0-1.9-0.4-2.7-1.4c-1.4-1.7-3.6-2.4-5.9-2.4c-5.5,0-9.4,4.3-9.4,10.1c0,1.4,0.6,10,9.5,10c2.7,0,5.4-1,6.8-3c0.8-1,1.7-1.4,2.6-1.4c1.9,0,3.6,1.6,3.6,3.4C240.7,178.6,235.3,183.2,227.7,183.2z"/>
		<path d="M272.6,182.9c-0.8,0-1.7-0.4-2.5-1.2c-1.9-1.9-9.5-10.2-12.3-13.5c-0.3-0.3-0.7-0.5-1.3-0.5c-1.5,0-1.5,0.4-1.5,4.7c0,1.4,0.1,3.5,0.2,7.1c0.1,1.4-0.7,3.3-3.3,3.3c-1.7,0-3.4-1.1-3.4-3.2c0-0.1,0-0.1,0-0.1c0.2-6.7,0.3-16.4,0.3-25.1c0-7.2-0.1-13.8-0.2-17.6c-0.1-1.7,1.4-3,3.5-3c1.7,0,3.3,0.9,3.3,2.9c0,0.1,0,0.1,0,0.1c-0.2,7.1-0.3,23.7-0.3,23.7c0,0.6,0.6,0.9,1,0.9c1,0,1.2-0.2,13.4-9.9c0.7-0.5,1.4-0.8,2.1-0.8c1.9,0,3.5,1.9,3.5,3.8c0,1-0.4,1.9-1.3,2.5c-3.8,2.7-6.6,4.7-10,7c-0.5,0.3-0.6,0.5-0.6,0.7c0,0.3,0.2,0.5,0.5,0.8c3.3,3.3,9.7,9.1,11.5,10.9c0.8,0.8,1.1,1.7,1.1,2.6C276.4,181.2,274.5,182.9,272.6,182.9z"/>
		<path d="M193.4,97.1c12.5-8.8,16.4-21.2,13.5-29.3c-2-5.5-7.2-5.7-12-2.9c-1.4,0.8-5.3,2.8-6.8,3.2c-5.5,1.4-7.3-5.5-2.2-7.3c1.8-0.6,4.1-1.4,6-2.2c7.1-3.2,17.4-2.9,21.1,5.2c5.4,11.7-0.6,28.3-14.6,38.6C193.9,105.8,189.2,100.1,193.4,97.1z M191.9,47.1c-4-2.2-1.1-7.7,3.8-5.5c3,1.3,7,2.5,10.9,3.1c5.7,1,3.4,8.1-1.8,7.1C199.9,50.9,194.8,48.8,191.9,47.1z"/>
		<path d="M143.5,109.3c0.6,10-8.4,9.9-14.1,7.1c-8.3-4.1-6-9-2.3-13.1c2.2-2.3,5.7-5,9.9-7.4c-0.1-2.9-0.1-5.9-0.1-8.8c-2.9,0.6-5.7,0.6-8.4,0.3c-5.2-0.6-4.3-7.6,1.5-6.4c1.8,0.3,4.3,0.1,7.1-0.6c0-3.3-0.1-5.5-0.3-8.2c-0.3-5.2,7.4-5,7.1-0.1c-0.1,1.5-0.2,3.8-0.3,5.9c1.1-0.5,2-1.1,2.8-1.6c3.8-2.5,8.1,3,3.1,5.9c-2.1,1.3-4.3,2.3-6.6,3.2c-0.1,2.2-0.1,4.8,0,7.4c2-0.9,4-1.6,5.9-2.2c6-1.8,12-1.2,15.5,0.1c11.6,4,9.7,13.4,6.1,18.6c-4.6,6.6-14.4,8.8-22.5,4.2c-4-2.3-1.3-8.1,3-6c5.5,2.7,9.9,2.7,13.3-1.8c1.7-2.2,3.6-7.2-2.4-9.5c-2.7-1.1-6.4-1.3-11.3-0.1c-2.5,0.6-5,1.5-7.4,2.7C143,102.7,143.3,106.3,143.5,109.3z M131.7,107.1c-1.5,1.6-1.5,3.4,0.1,4.2c3,1.5,5,1.3,5.1-1.5c0.1-1.9,0.1-4.5,0-7.4C134.9,104,133.2,105.5,131.7,107.1z M171.4,85c-1.8-1.6-5.7-3.3-9.2-2.9c-4.3,0.5-5.4-5.7-0.3-6.2c5-0.4,12,1.3,14.6,4c1.7,1.8,1.3,3.7,0.1,5C175.2,86.2,173.1,86.5,171.4,85z"/>
		<path d="M244.5,96c3.8-2.8,8.7-5.3,13.9-6c14.7-2,21.4,11,12.5,21.5c-3.9,4.6-11.3,8.2-18.8,9.2c-6.7,0.9-7.1-6.1-1.8-6.7c6-0.7,11.7-3,14.6-6.3c5.1-5.7,3.9-12.4-5.6-11.6c-4.4,0.3-9.4,3.3-12.3,6.4c-1.3,1.3-1.6,3.4-4,4c-3.1,0.8-5.5-2.2-5-5.7c0.6-4,1.5-11.1,2.6-18c-2.1,0.2-4.3,0.1-6.6-0.2c-5.2-0.8-4.6-7.9,1-6.7c2,0.4,4.3,0.5,6.7,0.1c0.7-4.5,1.4-8.3,1.9-10.5c1.1-4.8,8.1-2.7,6.7,1.7c-0.5,1.6-1,3.9-1.5,6.5c1.3-0.6,2.5-1.4,3.7-2.2c4.8-3.4,9.2,3.6,2.7,6.6c-2.9,1.4-5.5,2.5-7.9,3.3C246.1,87.4,245,93.6,244.5,96z"/>
	</g>
	<path class="house" d="M279.4,200.5c6.2,0,11.2-5,11.2-11.2V82.4c0-6.2-4.4-13.7-9.7-16.8l-70.2-40.5c-5.3-3.1-14.1-3.1-19.4,0l-70.2,40.5c-5.3,3.1-9.7,10.6-9.7,16.8v106.9c0,6.2,5,11.2,11.2,11.2H279.4z"/>
</g>


<g title="勉強会" class="letter">
	<path d="M147,239.8c0,2.8-0.2,6.5-0.2,9.5c0,1.1,0.7,1.8,1.7,1.9c2.2,0.2,4.8,0.3,7.5,0.3c9,0,10.2-0.4,10.2-3.2c0-1.3,1-1.8,2-1.8c0.6,0,2.5,0.2,2.5,2.2c0,6.6-6.3,6.7-14.5,6.7c-3.2,0-6.4-0.1-8.3-0.3c-3.4-0.2-5.1-1.9-5.1-5.1c0-3.4,0.1-7.4,0.2-10c-8.8,0-9.5,0-9.5-6.5c0-0.4,0-0.8,0-1.1c-0.4,0.4-0.9,0.6-1.4,0.6c-1.1,0-2.1-0.7-2.1-1.7c0-0.4,0.1-0.9,0.5-1.3c3-3.4,5.6-8.3,6.7-12.1c0.3-0.9,1.1-1.3,2-1.3c1.1,0,2.2,0.6,2.2,1.7c0,0.1,0,0.5-0.5,1.8c0.9,0,2,0,2.8,0c2.6,0,4.1,0.9,4.1,2.4c0,0.8-0.4,1.7-1.9,4.6c0.4,0,0.9,0,1.3,0c2.5,0.1,4.4,1.4,4.5,3.5c0.1,1.1,0.1,2.3,0.1,3.5c0,2.8-0.1,5.6-4.3,5.8H147z M130.9,253.9c0-0.6,0.4-1.3,1.2-1.8c3.6-2.4,4.8-6,5.5-9.8c0.2-1.2,1.1-1.7,1.9-1.7c1.1,0,2.2,0.8,2.2,1.9c0,0.1,0,0.2,0,0.3c-1.3,8.6-6.2,13.2-8.4,13.2C131.9,255.9,130.9,254.9,130.9,253.9z M137.4,227c1.2-0.1,2.7-0.1,4.3-0.1c0.6-1.1,1.4-2.8,1.4-3.2c0-0.3-0.4-0.4-0.8-0.4c-0.4,0-1.9,0-3,0c-0.4,0.9-0.9,1.8-2.1,3.6H137.4z M140.7,230.2c-0.7,0-1.3,0-1.7,0c-1.5,0.1-1.6,0.7-1.6,3.6c0,0.6,0,1.2,0,1.8c0,0.9,0.8,1,3.3,1V230.2z M144.3,236.7c0.7,0,1.4,0,2,0c1.3,0,1.4-0.5,1.4-2.8c0-3,0-3.5-1.6-3.6c-0.5,0-1.1,0-1.7,0V236.7z M160.7,227.6c-0.6,7.8-1.8,14.8-9,20.6c-0.4,0.4-0.9,0.5-1.4,0.5c-1.2,0-2.2-1-2.2-2.1c0-0.5,0.2-1,0.8-1.4c6.6-5,7.5-10.9,7.9-17.6c-1.6,0-3.1,0-4.5,0h0c-1.1,0-1.7-0.9-1.7-1.7c0-0.9,0.6-1.8,1.7-1.9c1.5,0,3,0,4.7,0c0-1,0-2.1,0-3.1c0-0.8,0-1.6,0-2.4c0,0,0,0,0-0.1c0-1,1-1.5,2-1.5c1,0,2.1,0.5,2.1,1.6c0,0.9,0,1.6,0,2.4c0,1,0,2.1-0.1,3.1l3.2,0c2.7,0,4.5,1.7,4.6,4.2c0,0.9,0,2.1,0,3.3c0,6.8-0.2,16.4-8.2,16.4c-1,0-2.2-0.2-3.4-0.5c-0.9-0.2-1.3-1-1.3-1.9c0-1.1,0.7-2.3,1.8-2.3c0.2,0,0.4,0,0.6,0.1c0.9,0.3,1.7,0.4,2.4,0.4c3.3,0,4-5.3,4-10.8c0-1.6,0-3.1-0.1-4.1c0-0.9-0.8-1.3-1.6-1.3H160.7z"/>
	<path d="M186.5,221.7c-1.3,0-1.9-0.9-1.9-1.9c0-0.9,0.6-2,2-2c0.4,0,0.8,0,1.2,0c1.7,0,3.3,0,4.7,0c2.9,0,4.5,1.6,4.6,4.3c0,0.6,0,1.5,0,2.4c0,3.9,0,6.3-4.6,6.3c-0.8,0-1.8,0-2.2,0c-0.9,0-1.4,0.2-1.5,0.9c-0.4,1.8-0.4,3-0.4,3.1c0,0.7,0.4,0.9,0.8,0.9c1.3,0,2.7,0,3.7,0c4.2,0,4.5,3.1,4.5,4.9c0,6.3-1.3,14.4-9.6,14.4c-2.5,0-4.9-0.5-4.9-2.7c0-1.1,0.7-2.1,2-2.1c0.3,0,0.7,0,1.1,0.2c0.7,0.2,1.3,0.4,2,0.4c2.2,0,3.9-1.5,4.6-3.9c0.5-1.9,0.8-4.4,0.8-6c0-1.1-0.2-1.7-1.8-1.7c-1.1,0-2.6,0.1-3.6,0.1c-2.8,0-3.9-1-3.9-2.7c0-0.8,0.7-4.8,1-6.3c0.6-2.5,1.7-3.2,4.1-3.2c0.1,0,0.1,0,0.2,0c0.6,0,1.7,0.1,2.3,0.1c1.3,0,1.5-0.6,1.5-2.6c0-2.4,0-3-1.5-3H186.5z M214.8,249.6c-0.4-0.4-0.6-0.9-0.6-1.3c0-1,1-1.8,2.1-1.8c0.4,0,0.9,0.1,1.3,0.5c0.3,0.2,5.3,4.6,5.3,6.8c0,1.3-1.1,2.3-2.2,2.3c-0.7,0-1.3-0.4-1.8-1.2c-0.4-0.7-0.9-1.4-1.3-2c-6,1.5-17.6,2.8-19,2.8c-1.3,0-2-1.1-2-2.2c0-1,0.6-2,1.8-2c2.6,0,6-0.3,9.2-0.6v-5.1c-1.3,0-2.5,0-3.5-0.1c-2.7-0.1-4.1-1.4-4.3-3.6c0-0.8,0-1.8,0-2.9c0-4.3,0-6.5,4.5-6.5c1,0,2.1,0,3.4,0v-2.3c0-0.7,0.3-1.2,0.8-1.5c-1.1,0.1-5.5,0.7-8.6,0.7c-1.1,0-1.7-1-1.7-2c0-1,0.5-1.9,1.6-1.9c1.2,0,2.5,0,3.6-0.1c0.9-1.9,1.9-4.6,2.4-7c0.2-1.1,1.1-1.5,1.9-1.5c1.2,0,2.5,0.9,2.5,2.1c0,1.4-2,5.2-2.6,6.1c2.3-0.2,4.5-0.4,6.5-0.8c-0.4-0.4-0.7-0.7-1.1-1c-0.5-0.4-0.8-0.9-0.8-1.3c0-0.9,0.9-1.7,2-1.7c2,0,7.4,5.3,7.4,7.3c0,1.3-1.1,2.3-2.3,2.3c-0.6,0-1.3-0.4-1.7-1.1c-0.3-0.5-0.6-1-0.9-1.4c-2,0.4-4.2,0.8-6.5,1.1c0.8,0.2,1.4,0.8,1.4,1.8v2.3c1.3,0,2.6,0,3.8,0c2.3,0,3.9,1.8,4.1,3.4c0,0.7,0.1,2.3,0.1,3.7c0,0.9,0,1.7,0,2.3c-0.1,1.9-1.6,3.5-4.5,3.7c-1,0-2.2,0-3.4,0v4.6c1.2-0.2,2.3-0.3,3.3-0.5L214.8,249.6z M207.5,235.9c-0.9,0-1.6,0-2.2,0c-1.7,0.1-1.8,0.6-1.8,3.5c0,2.7,0.3,2.7,4,2.7V235.9z M211.7,242.2c3.8,0,3.9-0.1,3.9-2.9c0-0.9,0-1.7,0-2.2c-0.1-1.3-1-1.3-3.9-1.3V242.2z"/>
	<path d="M255.1,222.3c-0.5-0.5-0.9-0.8-1.2-0.8c-0.3,0-0.6,0.3-1.1,0.8c-3.7,4.7-9.6,10.3-14.4,13.4c-0.7,0.4-1.3,0.6-1.9,0.6c-1.4,0-2.5-1.2-2.5-2.4c0-0.8,0.4-1.6,1.4-2.1c5.2-2.7,10.8-8.2,14.2-12.6c1.1-1.4,2.5-2.2,3.9-2.2c1.4,0,2.9,0.7,4.2,2.2c4.4,4.7,9.2,8.5,14.5,11.2c0.9,0.4,1.2,1.2,1.2,1.9c0,1.3-1.1,2.6-2.6,2.6C268.5,235.1,260.1,227.9,255.1,222.3z M252.8,241.6c-0.8,2.6-1.9,5.9-3.3,8.7c4.1-0.3,8.2-0.8,12.1-1.4c-1-0.9-2.1-1.8-3.3-2.6c-0.7-0.4-0.9-1-0.9-1.5c0-0.9,0.9-1.8,2.1-1.8c2.6,0,10.7,7.5,10.7,10.1c0,1.3-1.3,2.4-2.5,2.4c-0.7,0-1.4-0.4-1.8-1.2c-0.4-0.8-0.9-1.6-1.5-2.3c-10.5,2.2-23.2,3-24.1,3c-1.3,0-2.1-1.2-2.1-2.2c0-1,0.6-2,1.8-2c1.6,0,3.2-0.1,4.8-0.2c1.3-2.6,2.4-6,3.2-9l-8.5,0c-1.4,0-2.1-0.9-2.1-1.9c0-1,0.7-2.1,2.1-2.1h28.4c1.4,0,2.1,1,2.1,2.1c0,1-0.7,2-2.1,2L252.8,241.6z M247.7,233.4c-1.4,0-2.1-1-2.1-2c0-1,0.7-2,2.1-2h12.9c1.4,0,2.1,1,2.1,2c0,1-0.7,2-2.1,2H247.7z"/>
</g>

</svg>
