<?xml version="1.0" encoding="utf-8"?>
<svg version="1.1" xmlns="http://www.w3.org/2000/svg"
	width="180px" height="180px" viewBox="0 0 180 180">

<title>おうちHack勉強会</title>

<style type="text/css">
	.gray-letter { fill: #808080; }
	.blue-letter { fill: #2DABE0; }
	
	#hammer { fill:#FFD400; opacity:0.67; }
	#house  { fill:none; stroke:#808080; stroke-width:4; }
</style>

<g title="勉強会" class="gray-letter">
	<path d="M49,161.2c0,2-0.2,4.6-0.2,6.8c0,0.8,0.5,1.3,1.2,1.3c1.6,0.1,3.5,0.2,5.3,0.2c6.5,0,7.3-0.3,7.3-2.3c0-0.9,0.7-1.3,1.4-1.3c0.4,0,1.8,0.1,1.8,1.6c0,4.7-4.5,4.8-10.4,4.8c-2.3,0-4.6-0.1-6-0.2c-2.4-0.2-3.6-1.4-3.6-3.6c0-2.5,0.1-5.3,0.1-7.2c-6.3,0-6.8,0-6.8-4.6c0-0.3,0-0.5,0-0.8c-0.3,0.3-0.7,0.4-1,0.4c-0.8,0-1.5-0.5-1.5-1.2c0-0.3,0.1-0.6,0.4-0.9c2.1-2.5,4-6,4.8-8.7c0.2-0.7,0.8-1,1.4-1c0.8,0,1.6,0.4,1.6,1.2c0,0.1,0,0.4-0.4,1.3c0.6,0,1.4,0,2,0c1.9,0,2.9,0.6,2.9,1.7c0,0.5-0.3,1.2-1.3,3.3c0.3,0,0.6,0,0.9,0c1.8,0.1,3.1,1,3.2,2.5c0.1,0.8,0.1,1.6,0.1,2.5c0,2-0.1,4-3.1,4.1H49z M37.5,171.3c0-0.4,0.3-0.9,0.8-1.3c2.6-1.7,3.4-4.3,3.9-7c0.2-0.9,0.8-1.2,1.4-1.2c0.8,0,1.5,0.5,1.5,1.4c0,0.1,0,0.2,0,0.2c-0.9,6.1-4.4,9.4-6,9.4C38.2,172.7,37.5,172,37.5,171.3z M42.2,152.1c0.8-0.1,1.9-0.1,3.1-0.1c0.4-0.8,1-2,1-2.3c0-0.2-0.3-0.3-0.5-0.3c-0.3,0-1.4,0-2.1,0C43.3,150.1,43,150.8,42.2,152.1L42.2,152.1z M44.5,154.3c-0.5,0-0.9,0-1.2,0c-1.1,0.1-1.1,0.5-1.1,2.6c0,0.4,0,0.9,0,1.3c0,0.7,0.6,0.7,2.3,0.7V154.3z M47.1,159c0.5,0,1,0,1.4,0c1,0,1-0.4,1-2c0-2.1,0-2.5-1.2-2.6c-0.4,0-0.8,0-1.2,0V159z M58.8,152.5c-0.4,5.6-1.3,10.6-6.4,14.7c-0.3,0.3-0.7,0.4-1,0.4c-0.8,0-1.6-0.7-1.6-1.5c0-0.4,0.2-0.7,0.5-1c4.7-3.6,5.3-7.8,5.6-12.6c-1.2,0-2.2,0-3.2,0h0c-0.8,0-1.2-0.6-1.2-1.2c0-0.7,0.4-1.3,1.2-1.3c1.1,0,2.2,0,3.4,0c0-0.7,0-1.5,0-2.2c0-0.5,0-1.1,0-1.7c0,0,0,0,0-0.1c0-0.7,0.7-1.1,1.4-1.1s1.5,0.4,1.5,1.2c0,0.6,0,1.2,0,1.7c0,0.7,0,1.5-0.1,2.2l2.3,0c2,0,3.2,1.2,3.3,3c0,0.7,0,1.5,0,2.4c0,4.8-0.2,11.7-5.9,11.7c-0.7,0-1.5-0.1-2.4-0.4c-0.6-0.2-0.9-0.7-0.9-1.3c0-0.8,0.5-1.6,1.3-1.6c0.1,0,0.3,0,0.4,0.1c0.6,0.2,1.2,0.3,1.7,0.3c2.4,0,2.9-3.8,2.9-7.7c0-1.2,0-2.2-0.1-2.9c0-0.7-0.5-1-1.2-1H58.8z"/>
	<path class="st6" d="M77.2,148.2c-0.9,0-1.3-0.7-1.3-1.3s0.4-1.4,1.4-1.4c0.3,0,0.6,0,0.9,0c1.2,0,2.3,0,3.4,0c2.1,0,3.2,1.1,3.3,3.1c0,0.4,0,1.1,0,1.7c0,2.8,0,4.5-3.3,4.5c-0.5,0-1.3,0-1.6,0c-0.6,0-1,0.2-1.1,0.7c-0.3,1.3-0.3,2.1-0.3,2.2c0,0.5,0.3,0.6,0.6,0.6c1,0,1.9,0,2.7,0c3,0,3.2,2.2,3.2,3.5c0,4.5-1,10.3-6.9,10.3c-1.8,0-3.5-0.4-3.5-1.9c0-0.8,0.5-1.5,1.4-1.5c0.2,0,0.5,0,0.8,0.1c0.5,0.2,1,0.3,1.4,0.3c1.6,0,2.8-1.1,3.3-2.8c0.4-1.4,0.5-3.2,0.5-4.3c0-0.8-0.1-1.2-1.3-1.2c-0.8,0-1.9,0.1-2.6,0.1c-2,0-2.8-0.7-2.8-2c0-0.6,0.5-3.4,0.7-4.5c0.4-1.8,1.2-2.3,2.9-2.3c0.1,0,0.1,0,0.2,0c0.4,0,1.2,0.1,1.6,0.1c1,0,1.1-0.4,1.1-1.8c0-1.7,0-2.2-1.1-2.2H77.2z M97.4,168.2c-0.3-0.3-0.4-0.6-0.4-0.9c0-0.7,0.7-1.3,1.5-1.3c0.3,0,0.7,0.1,1,0.4c0.2,0.2,3.8,3.3,3.8,4.9c0,0.9-0.8,1.6-1.5,1.6c-0.5,0-1-0.3-1.3-0.9c-0.3-0.5-0.6-1-0.9-1.4c-4.3,1.1-12.5,2-13.6,2c-1,0-1.4-0.8-1.4-1.6c0-0.7,0.4-1.4,1.3-1.4c1.9,0,4.3-0.2,6.6-0.4v-3.6c-0.9,0-1.8,0-2.5-0.1c-1.9-0.1-2.9-1-3-2.6c0-0.5,0-1.3,0-2.1c0-3,0-4.6,3.2-4.7c0.7,0,1.5,0,2.4,0v-1.7c0-0.5,0.2-0.9,0.6-1.1c-0.8,0.1-3.9,0.5-6.1,0.5c-0.8,0-1.2-0.7-1.2-1.4s0.4-1.4,1.2-1.4c0.9,0,1.8,0,2.6-0.1c0.6-1.3,1.3-3.3,1.7-5c0.2-0.8,0.8-1.1,1.4-1.1c0.9,0,1.8,0.6,1.8,1.5c0,1-1.4,3.7-1.8,4.4c1.6-0.1,3.2-0.3,4.7-0.5c-0.3-0.3-0.5-0.5-0.8-0.7c-0.4-0.3-0.5-0.6-0.5-1c0-0.6,0.7-1.2,1.4-1.2c1.4,0,5.3,3.8,5.3,5.2c0,0.9-0.8,1.6-1.6,1.6c-0.4,0-0.9-0.3-1.2-0.8c-0.2-0.4-0.4-0.7-0.7-1c-1.4,0.3-3,0.6-4.6,0.8c0.5,0.2,1,0.6,1,1.3v1.7c1,0,1.9,0,2.7,0c1.6,0,2.8,1.3,2.9,2.5c0,0.5,0.1,1.6,0.1,2.7c0,0.6,0,1.2,0,1.6c-0.1,1.3-1.2,2.5-3.2,2.6c-0.7,0-1.6,0-2.4,0v3.3c0.9-0.1,1.7-0.2,2.4-0.4L97.4,168.2z M92.2,158.4c-0.6,0-1.1,0-1.6,0c-1.2,0.1-1.3,0.4-1.3,2.5c0,1.9,0.2,2,2.8,2V158.4z M95.2,162.9c2.7,0,2.8-0.1,2.8-2c0-0.6,0-1.2,0-1.5c-0.1-0.9-0.7-0.9-2.8-0.9V162.9z"/>
	<path class="st6" d="M126.3,148.7c-0.4-0.4-0.6-0.6-0.8-0.6c-0.2,0-0.4,0.2-0.8,0.6c-2.6,3.3-6.8,7.4-10.3,9.6c-0.5,0.3-0.9,0.4-1.3,0.4c-1,0-1.8-0.8-1.8-1.7c0-0.5,0.3-1.1,1-1.5c3.7-1.9,7.7-5.8,10.1-9c0.8-1,1.8-1.5,2.8-1.5c1,0,2,0.5,3,1.5c3.1,3.4,6.6,6,10.4,8c0.6,0.3,0.9,0.8,0.9,1.4c0,0.9-0.8,1.9-1.9,1.9C135.8,157.8,129.8,152.7,126.3,148.7z M124.6,162.5c-0.6,1.8-1.4,4.2-2.3,6.2c2.9-0.2,5.9-0.6,8.6-1c-0.7-0.7-1.5-1.3-2.3-1.9c-0.5-0.3-0.7-0.7-0.7-1.1c0-0.7,0.7-1.3,1.5-1.3c1.9,0,7.6,5.3,7.6,7.2c0,1-0.9,1.7-1.8,1.7c-0.5,0-1-0.3-1.3-0.9c-0.3-0.6-0.7-1.1-1.1-1.6c-7.5,1.6-16.6,2.2-17.2,2.2c-1,0-1.5-0.8-1.5-1.6c0-0.7,0.4-1.4,1.3-1.4c1.1,0,2.3-0.1,3.4-0.1c0.9-1.9,1.7-4.3,2.3-6.4l-6,0c-1,0-1.5-0.7-1.5-1.4c0-0.7,0.5-1.5,1.5-1.5h20.3c1,0,1.5,0.7,1.5,1.5c0,0.7-0.5,1.4-1.5,1.4L124.6,162.5z M121,156.6c-1,0-1.5-0.7-1.5-1.4c0-0.7,0.5-1.4,1.5-1.4h9.2c1,0,1.5,0.7,1.5,1.4c0,0.7-0.5,1.4-1.5,1.4H121z"/>
</g>

<g id="hammer">
	<path d="M76.9,110.5c-1.1,1.9-3.6,2.6-5.5,1.5l-6.1-3.5c-1.9-1.1-2.6-3.6-1.5-5.5l11-19.1c1.1-1.9,3.1-4.9,4.4-6.7l4.3-5.7c1.3-1.8,4-2.3,5.9-1.2l2.8,1.6c1.9,1.1,2.8,3.7,1.9,5.7l-2.8,6.6c-0.9,2-2.5,5.2-3.6,7.1L76.9,110.5z"/>
	<path d="M123.9,59.2c0.8-1.4,0.3-3.3-1.1-4.1l-2.6-1.5c-1.4-0.8-3.8-0.9-5.3-0.1c0,0-1,0.5-3.1-0.6c-3.7-2.1-0.6-4.4-5.1-7c-19.9-11.5-28.9-2.7-28.9-2.7c-1.2,1.2-0.8,2.2,0.9,2.2c0,0,5.2,0.2,11.3,3.8c4.3,2.5,4.1,7.5,2.5,10.1s-2.2,3.9-2.2,3.9c-0.8,1.4-0.3,3.3,1.1,4.1l2.9,1.7c1.4,0.8,3.2,0.3,4-1.1c0,0,0.4-0.8,2.3-3.9c1.3-2.1,4.7-6.2,7.5-4.6c2,1.2,1.6,4.1,1.6,4.1c-0.2,1.6,0.8,3.6,2.2,4.5l2.6,1.5c1.4,0.8,3.3,0.3,4.1-1.1L123.9,59.2z"/>
</g>


<g title="おうちHack" class="blue-letter">
	<path title="H" d="M66.7,119.1c0,1.5-1.3,2.3-2.7,2.3c-1.3,0-2.7-0.7-2.7-2.2c0,0,0,0,0-0.1c0-2.1,0.1-4.1,0.1-6c0-2.9,0-5.3-0.1-6.5c0-0.7-0.2-0.8-0.9-0.9c-1.6,0-4.3-0.1-7.1-0.1c-3.4,0-6.9,0-8.7,0.1c-0.4,0-0.9,0-0.9,0.7c0,1.2-0.1,3.6-0.1,6.7c0,1.8,0,3.9,0.1,6c0,0,0,0,0,0.1c0,1.5-1.3,2.2-2.6,2.2s-2.7-0.7-2.7-2.2v0c0.1-4.9,0.1-10.9,0.1-16.7c0-5.2,0-10-0.1-13.5c0-1.5,1-2.5,2.6-2.5c1.3,0,2.7,0.8,2.7,2.4c0,0,0,0,0,0.1c0,1.8-0.1,3.7-0.1,5.3c0,2.5,0,4.6,0.1,5.7c0,0.7,0.4,0.9,0.7,0.9c1.2,0,4.3,0,7.6,0c3.4,0,6.8,0,8.5,0c0.6,0,0.7-0.3,0.7-0.8c0-1.1,0.1-3.2,0.1-5.7c0-1.7,0-3.5-0.1-5.3c0-1.5,1.2-2.5,2.7-2.5c1.3,0,2.7,0.8,2.7,2.4c0,0,0,0,0,0.1c-0.1,3.4-0.1,8.3-0.1,13.3C66.6,108.6,66.6,115.2,66.7,119.1L66.7,119.1z"/>
	<path title="a" d="M90.3,120.5c-0.4-0.3-0.8-0.8-1.2-1.5c0-0.1-0.1-0.1-0.2-0.1c-0.1,0-0.2,0-0.3,0.1c-1.6,1.8-4.5,2.8-7.2,2.8c-5.1,0-8.1-3.7-8.1-7.2c0-2.3,1.4-4.7,4.5-5.8c3.2-1.1,7.1-2,7.9-2c0.5,0,0.8-0.6,0.8-1.6c0-0.6-0.1-2.9-3.3-2.9c-2.1,0-3.6,1-4.5,1.9c-0.5,0.6-1.2,0.8-1.7,0.8c-1.2,0-2.2-0.9-2.2-2.1c0-2.2,4-4.6,8.7-4.6c5.1,0,7.8,2.5,7.8,7.8c0,0.6,0,1.2-0.1,1.8c-0.1,0.7-0.2,2.4-0.2,3.8c0,0.4,0,0.8,0,1.1c0.4,3.7,2.1,3.8,2.5,4.1c0.5,0.4,0.7,1,0.7,1.6c0,1.3-1,2.8-2.3,2.8C91.4,121.1,90.8,120.9,90.3,120.5z M86,110.6c-7.8,1-8.2,2.9-8.2,4c0,1.4,1.2,2.9,3.6,2.9c3.7,0,5.3-1.9,5.3-5.2C86.7,111.6,86.6,110.6,86,110.6L86,110.6z"/>
	<path title="c" d="M109.1,121.6c-8.4,0-11.5-6.5-11.5-11.5c0-6.2,4.4-11.9,11.6-11.9c4.9,0,8.3,2.9,8.3,4.8c0,1.3-1.2,2.4-2.4,2.4c-0.6,0-1.3-0.3-1.9-1c-1-1.2-2.6-1.7-4.2-1.7c-3.9,0-6.7,3-6.7,7.2c0,1,0.5,7.1,6.8,7.1c1.9,0,3.9-0.7,4.9-2.1c0.6-0.7,1.2-1,1.9-1c1.3,0,2.6,1.1,2.6,2.4C118.4,118.3,114.5,121.6,109.1,121.6z"/>
	<path title="k" d="M141.1,121.4c-0.6,0-1.2-0.3-1.8-0.8c-1.3-1.4-6.8-7.3-8.8-9.6c-0.2-0.2-0.5-0.3-0.9-0.3c-1.1,0-1.1,0.3-1.1,3.4c0,1,0,2.5,0.1,5.1c0,1-0.5,2.3-2.3,2.3c-1.2,0-2.4-0.8-2.4-2.3c0,0,0,0,0-0.1c0.1-4.8,0.2-11.7,0.2-17.9c0-5.2,0-9.8-0.1-12.6c0-1.2,1-2.1,2.5-2.1c1.2,0,2.4,0.6,2.4,2.1c0,0,0,0,0,0.1c-0.1,5.1-0.2,16.9-0.2,16.9c0,0.4,0.4,0.6,0.7,0.6c0.7,0,0.9-0.1,9.6-7.1c0.5-0.4,1-0.6,1.5-0.6c1.4,0,2.5,1.4,2.5,2.7c0,0.7-0.3,1.3-0.9,1.8c-2.7,1.9-4.7,3.4-7.2,5c-0.3,0.2-0.5,0.4-0.5,0.5c0,0.2,0.1,0.4,0.4,0.6c2.3,2.3,6.9,6.5,8.2,7.8c0.6,0.6,0.8,1.2,0.8,1.8C143.8,120.2,142.5,121.4,141.1,121.4z"/>
	<path title="う" d="M84.6,60.1c9-6.3,11.7-15.2,9.7-21c-1.4-3.9-5.2-4.1-8.6-2.1c-1,0.6-3.8,2-4.9,2.3c-4,1-5.2-3.9-1.5-5.2c1.3-0.4,2.9-1,4.3-1.6c5.1-2.2,12.5-2,15.1,3.7c3.9,8.4-0.4,20.2-10.4,27.6C84.9,66.3,81.6,62.2,84.6,60.1z M83.5,24.4c-2.9-1.6-0.8-5.5,2.8-3.9c2.2,0.9,5,1.8,7.8,2.2c4.1,0.7,2.5,5.8-1.2,5.1C89.2,27.1,85.6,25.6,83.5,24.4z"/>
	<path title="お" d="M48.9,68.9c0.4,7.2-6,7.1-10.1,5.1c-6-2.9-4.3-6.5-1.6-9.4c1.5-1.6,4.1-3.6,7.1-5.3c0-2.1-0.1-4.2-0.1-6.3c-2,0.4-4.1,0.5-6,0.2c-3.7-0.5-3.1-5.5,1-4.6c1.2,0.2,3.1,0,5.1-0.5c0-2.4-0.1-4-0.2-5.9c-0.2-3.7,5.3-3.6,5.1-0.1c-0.1,1.1-0.2,2.7-0.2,4.2c0.8-0.4,1.4-0.8,2-1.1c2.7-1.8,5.8,2.1,2.2,4.2c-1.5,0.9-3.1,1.7-4.7,2.3c-0.1,1.5-0.1,3.4,0,5.3c1.4-0.6,2.9-1.2,4.2-1.6c4.3-1.2,8.6-0.9,11.1,0.1c8.3,2.9,6.9,9.6,4.4,13.3c-3.3,4.7-10.3,6.3-16.1,3c-2.9-1.6-0.9-5.8,2.2-4.2c3.9,1.9,7.1,1.9,9.5-1.3c1.2-1.6,2.6-5.1-1.8-6.8c-2-0.8-4.6-0.9-8.1-0.1c-1.8,0.4-3.6,1.1-5.3,1.9C48.6,64.1,48.8,66.7,48.9,68.9z M40.5,67.3c-1,1.2-1,2.5,0.1,3c2.1,1,3.6,0.9,3.7-1.1c0-1.4,0-3.2,0-5.3C42.8,65,41.6,66.1,40.5,67.3z M68.9,51.5c-1.3-1.1-4-2.4-6.6-2.1c-3.1,0.4-3.9-4.1-0.2-4.4c3.6-0.3,8.6,0.9,10.4,2.9c1.2,1.2,0.9,2.6,0.1,3.6C71.6,52.3,70.1,52.6,68.9,51.5z"/>
	<path title="ち" d="M121.1,59.4c2.8-2,6.2-3.8,9.9-4.3c10.5-1.4,15.3,7.9,9,15.4c-2.8,3.3-8.1,5.9-13.5,6.6c-4.8,0.6-5.1-4.4-1.3-4.8c4.3-0.5,8.4-2.1,10.4-4.5c3.6-4.1,2.8-8.9-4-8.3c-3.1,0.2-6.7,2.4-8.8,4.6c-0.9,1-1.2,2.4-2.9,2.9c-2.2,0.6-3.9-1.6-3.6-4.1c0.4-2.9,1.1-8,1.9-12.9c-1.5,0.1-3.1,0.1-4.7-0.1c-3.7-0.6-3.3-5.7,0.7-4.8c1.4,0.3,3.1,0.4,4.8,0.1c0.5-3.2,1-6,1.4-7.5c0.8-3.4,5.8-1.9,4.8,1.2c-0.4,1.2-0.7,2.8-1.1,4.7c0.9-0.5,1.8-1,2.6-1.6c3.5-2.5,6.6,2.6,2,4.7c-2.1,1-4,1.8-5.7,2.4C122.2,53.2,121.5,57.6,121.1,59.4z"/>
</g>


<g>
	<path id="house" d="M146,134c4.4,0,8-3.6,8-8V49.6c0-4.4-3.1-9.8-6.9-12l-50.1-29c-3.8-2.2-10-2.2-13.9,0l-50.1,29c-3.8,2.2-6.9,7.6-6.9,12V126c0,4.4,3.6,8,8,8H146z"/>
</g>
</svg>
